<?xml version="1.0" encoding="UTF-8"?>
<svg width="18px" height="18px" viewBox="0 0 18 18" version="1.1" xmlns="http://www.w3.org/2000/svg" xmlns:xlink="http://www.w3.org/1999/xlink">
    <!-- Generator: Sketch 43 (38999) - http://www.bohemiancoding.com/sketch -->
    <title>Group 3</title>
    <desc>Created with Sketch.</desc>
    <defs></defs>
    <g id="Page-1" stroke="none" stroke-width="1" fill="none" fill-rule="evenodd">
        <g id="车队-车队列表" transform="translate(-493.000000, -925.000000)">
            <g id="Group-3" transform="translate(493.000000, 925.000000)">
                <circle id="Oval-3" fill="#35A6F8" cx="9" cy="9" r="9"></circle>
                <g id="分配" transform="translate(4.000000, 4.500000)" fill-rule="nonzero" fill="#FFFFFF">
                    <path d="M9.164859,6.21395122 L9.164859,4.78097561 C9.164859,4.16282927 8.66507592,3.65707317 8.05422993,3.65707317 L5.27765727,3.65707317 L5.27765727,2.81414634 C5.88850325,2.81414634 6.38828633,2.30839024 6.38828633,1.6902439 L6.38828633,1.12829268 C6.38828633,0.510146341 5.88850325,0.0043902439 5.27765727,0.0043902439 L4.72234273,0.0043902439 C4.11149675,0.0043902439 3.61171367,0.510146341 3.61171367,1.12829268 L3.61171367,1.6902439 C3.61171367,2.30839024 4.11149675,2.81414634 4.72234273,2.81414634 L4.72234273,3.65707317 L1.94577007,3.65707317 C1.33492408,3.65707317 0.835140998,4.16282927 0.835140998,4.78097561 L0.835140998,6.21395122 C0.363123644,6.32634146 0.0021691974,6.77590244 0.0021691974,7.3097561 L0.0021691974,7.87170732 C0.0021691974,8.48985366 0.501952278,8.99560976 1.11279826,8.99560976 L1.6681128,8.99560976 C2.27895879,8.99560976 2.77874187,8.48985366 2.77874187,7.87170732 L2.77874187,7.3097561 C2.77874187,6.69160976 2.27895879,6.18585366 1.6681128,6.18585366 L1.39045553,6.18585366 L1.39045553,4.78097561 C1.39045553,4.47190244 1.64034707,4.21902439 1.94577007,4.21902439 L4.72234273,4.21902439 L4.72234273,6.18585366 C4.11149675,6.18585366 3.61171367,6.69160976 3.61171367,7.3097561 L3.61171367,7.87170732 C3.61171367,8.48985366 4.11149675,8.99560976 4.72234273,8.99560976 L5.27765727,8.99560976 C5.88850325,8.99560976 6.38828633,8.48985366 6.38828633,7.87170732 L6.38828633,7.3097561 C6.38828633,6.69160976 5.88850325,6.18585366 5.27765727,6.18585366 L5.27765727,4.21902439 L8.05422993,4.21902439 C8.35965293,4.21902439 8.60954447,4.47190244 8.60954447,4.78097561 L8.60954447,6.18585366 L8.3318872,6.18585366 C7.72104121,6.18585366 7.22125813,6.69160976 7.22125813,7.3097561 L7.22125813,7.87170732 C7.22125813,8.48985366 7.72104121,8.99560976 8.3318872,8.99560976 L8.88720174,8.99560976 C9.49804772,8.99560976 9.9978308,8.48985366 9.9978308,7.87170732 L9.9978308,7.3097561 C9.9978308,6.77590244 9.63687636,6.35443902 9.164859,6.21395122 L9.164859,6.21395122 Z" id="Shape"></path>
                </g>
            </g>
        </g>
    </g>
</svg>