<?xml version="1.0" encoding="UTF-8"?>
<svg width="69px" height="68px" viewBox="0 0 69 68" version="1.1" xmlns="http://www.w3.org/2000/svg" xmlns:xlink="http://www.w3.org/1999/xlink">
    <!-- Generator: Sketch 43 (38999) - http://www.bohemiancoding.com/sketch -->
    <title>Group 4</title>
    <desc>Created with Sketch.</desc>
    <defs></defs>
    <g id="Page-1" stroke="none" stroke-width="1" fill="none" fill-rule="evenodd">
        <g id="首页-copy-3" transform="translate(-483.000000, -121.000000)">
            <g id="Group-4" transform="translate(483.000000, 121.000000)">
                <circle id="Oval-4-Copy" fill="#005691" cx="34.6666667" cy="34" r="34"></circle>
                <g id="用户-(2)" transform="translate(20.666667, 20.000000)" fill-rule="nonzero" fill="#FFFFFF">
                    <path d="M13.8637508,0 C9.93759357,0 6.73490318,3.90283351 6.73490318,8.70406162 C6.73490318,11.3612364 7.38451159,13.1429085 9.39596529,15.6303385 C12.7126827,20.5278849 2.22478947,20.8868108 0.585651242,24.3767283 C0.0997406839,25.4142013 0.0146523639,26.220165 0.0224269404,27.1457706 C0.0224269404,27.2649806 0.0111970026,27.3889418 0.070802026,27.4891473 C0.130407049,27.5854656 0.223269946,27.6433429 0.323475506,27.6433429 L27.3655851,27.6433429 C27.4619034,27.6433429 27.556494,27.5854656 27.6143713,27.4891473 C27.6739764,27.3889418 27.6627464,27.2692998 27.6627464,27.1457706 C27.6821829,26.1082975 27.5431044,25.1792366 27.2714265,24.612125 C25.530355,20.9602373 13.3666103,21.2336429 18.1371721,15.676554 C19.6989965,13.8408919 20.989143,11.3612364 20.989143,8.70406162 C20.9887111,3.90283351 17.7937953,0 13.8637508,0 L13.8637508,0 L13.8637508,0 Z" id="Shape"></path>
                </g>
            </g>
        </g>
    </g>
</svg>